<svg width="105" height="59" viewBox="0 0 105 59" fill="none" xmlns="http://www.w3.org/2000/svg">
<path d="M7.57813 0V3.50873H4.1515V55.5167H7.56495V59H0V0H7.57813Z" fill="#0998E1"/>
<path d="M104.973 0C104.973 0.190692 104.999 0.394096 104.999 0.584788C104.999 19.8828 104.999 39.1681 104.999 58.4661V58.9873H97.4341V55.5421H100.834V3.54686H97.3945V0H104.973Z" fill="#0998E1"/>
<path d="M56.0518 24.0659C55.92 24.8414 55.8673 25.5788 55.6432 26.278C55.037 28.2739 53.5345 29.2655 51.4654 29.596C49.8179 29.8503 48.1705 29.7613 46.5231 29.6723C45.9037 29.6341 45.8114 29.5197 45.8114 28.9095C45.8114 28.2993 45.8114 27.6764 45.8114 27.0662C45.8114 26.6212 45.9168 26.5449 46.3781 26.5449C47.2216 26.5449 48.0651 26.5576 48.9086 26.5449C49.4621 26.5322 50.0288 26.4941 50.5823 26.3924C51.7553 26.1635 52.2034 25.6042 52.2034 24.4346C52.2034 24.3456 52.2034 24.2566 52.2034 24.0914C51.9925 24.0914 51.808 24.1041 51.6103 24.0914C50.6351 24.0151 49.6334 24.0278 48.6977 23.8117C46.6813 23.3413 45.4292 22.0827 45.0866 20.0741C44.8625 18.8028 44.8757 17.5189 45.2315 16.273C45.7587 14.3915 47.0503 13.2092 48.9613 12.6499C50.4374 12.2176 51.9398 12.2303 53.4554 12.3448C54.0485 12.3829 54.6284 12.4719 55.2083 12.5736C55.9332 12.7134 56.0254 12.8406 56.0254 13.5398C56.0254 15.6755 56.0254 17.8113 56.0254 19.947V20.4174H70.1932C70.2723 19.4131 70.3646 18.396 69.8506 17.4426C69.4816 16.7561 68.8358 16.3747 68.0845 16.2094C67.4124 16.0569 66.7007 15.9425 66.0154 15.9298C64.223 15.8916 62.4306 15.917 60.6382 15.917C59.8474 15.917 59.7684 15.8535 59.7025 15.078C59.6102 13.883 59.8343 12.7389 60.3878 11.671C61.2708 9.95476 62.2197 8.26396 63.1423 6.56044C63.3268 6.2172 63.6167 6.05193 64.0517 6.06465C64.882 6.09007 65.6991 6.06465 66.5294 6.06465C67.0434 6.06465 67.1356 6.22991 66.8984 6.67486C66.4635 7.50119 65.989 8.31481 65.5541 9.14114C65.0137 10.1836 64.4866 11.2387 63.9594 12.2939C63.933 12.3575 63.9067 12.4337 63.8935 12.4719C65.0137 12.4719 66.1076 12.4465 67.2147 12.4719C68.4404 12.4973 69.6265 12.7134 70.7468 13.2219C72.6841 14.0864 73.6989 15.6119 73.9625 17.6078C74.0812 18.5232 74.068 19.4639 74.1207 20.4174C75.2541 20.4174 76.4271 20.4174 77.5869 20.4174C77.8636 20.4174 78.0218 20.2648 78.0481 20.0106C78.0745 19.8199 78.0745 19.6165 78.0745 19.4258C78.0745 15.256 78.0745 11.0989 78.0745 6.92911C78.0745 6.78927 78.0745 6.66215 78.0745 6.52231C78.1009 6.24262 78.259 6.06465 78.549 6.06465C79.4847 6.06465 80.4204 6.06465 81.3562 6.06465C81.6461 6.06465 81.8174 6.22991 81.8438 6.50959C81.857 6.66215 81.857 6.8147 81.857 6.95454C81.857 11.2896 81.857 15.6119 81.857 19.947C81.857 20.9513 81.7911 21.9556 81.7252 22.9599C81.6988 23.5447 81.488 23.7863 80.8817 23.8371C79.5111 23.9388 78.1536 24.0659 76.7829 24.0786C70.7468 24.1041 64.7106 24.0786 58.6877 24.0786C57.7783 24.0786 56.8821 24.0786 56.0122 24.0786L56.0518 24.0659ZM52.2561 15.523C51.7026 15.523 51.2018 15.4848 50.7141 15.523C49.8048 15.6119 49.1194 16.0442 48.8031 16.8832C48.4868 17.7223 48.5 18.5867 48.8031 19.4385C48.9745 19.947 49.3567 20.2648 49.897 20.3919C50.6746 20.5826 51.4654 20.4936 52.2693 20.5191V15.5102L52.2561 15.523Z" fill="#020202"/>
<path d="M57.1422 46.109C56.5887 46.5667 55.9165 46.7319 55.1521 46.7447C50.7502 46.7701 46.3615 46.8336 41.9596 46.8464C34.1706 46.8718 26.3684 46.8718 18.5794 46.8718C18.1972 46.8718 17.8018 46.8718 17.3801 46.8718C17.3274 47.6854 17.3801 48.4227 17.7359 49.1092C17.9863 49.5923 18.4608 49.783 18.9748 49.8974C19.5415 50.0245 19.5547 50.0373 19.5547 50.5839C19.5547 51.156 19.5547 51.7281 19.5547 52.3001C19.5547 52.9103 19.4361 53.012 18.8166 52.9993C16.0226 52.9485 14.1775 51.3721 13.7426 48.6516C13.4922 47.1006 13.5844 45.5624 13.8217 44.0241C13.9007 43.5029 14.0325 43.3758 14.5861 43.3631C16.4839 43.3376 18.3949 43.3249 20.2927 43.3122C21.0703 43.3122 21.8479 43.3122 22.7177 43.3122C22.3355 42.5749 22.0061 41.8757 21.637 41.1892C20.6749 39.3712 19.0407 38.5449 17.0111 38.3415C16.4048 38.2779 15.7986 38.3034 15.1923 38.3034C14.5202 38.3034 14.4279 38.2398 14.4279 37.6042C14.4279 37.0194 14.4279 36.4346 14.4279 35.8498C14.4279 35.5193 14.5597 35.3032 14.9156 35.2396C17.4065 34.8328 19.8578 34.8455 22.0983 36.193C23.4031 36.9685 24.3388 38.1 25.0637 39.3712C25.5381 40.1976 25.9335 41.062 26.3684 41.9011C26.4739 42.1045 26.5793 42.3079 26.6584 42.5113C26.8561 42.9817 27.1724 43.1596 27.7259 43.1596C36.622 43.1596 45.5312 43.1851 54.4273 43.2105C54.5195 43.2105 54.6118 43.2105 54.704 43.2105C55.4816 43.1469 55.653 42.9435 55.6793 42.1935C55.7189 41.1637 55.6661 40.1086 55.8507 39.0916C56.2592 36.8795 57.9462 35.4684 60.2657 35.1887C61.2805 35.0616 62.2954 35.0743 63.2838 35.3159C65.4057 35.8244 66.6314 37.1719 66.9477 39.2314C67.1585 40.579 67.1717 41.9646 66.895 43.3122C66.5128 45.2573 65.3266 46.5031 63.297 46.9353C61.6891 47.2786 60.0812 47.2277 58.4997 46.7192C58.0516 46.5794 57.6299 46.3251 57.1422 46.0963V46.109ZM59.3168 41.062C59.33 41.4434 59.3432 41.774 59.3695 42.1045C59.4882 43.2995 59.9758 43.7444 61.2147 43.808C61.3728 43.808 61.531 43.808 61.6759 43.7953C62.7039 43.719 63.2443 43.2232 63.3102 42.2316C63.3629 41.4943 63.3761 40.7569 63.3102 40.0323C63.2311 38.8627 62.6117 38.3288 61.4123 38.3034C60.1867 38.2652 59.4882 38.85 59.3564 40.045C59.3168 40.401 59.3036 40.7696 59.2905 41.0748L59.3168 41.062Z" fill="#020202"/>
<path d="M74.0173 46.8598C73.9778 47.5463 73.9646 48.1946 73.8987 48.8303C73.7933 49.9617 73.3979 50.966 72.4358 51.6906C71.7373 52.2246 70.907 52.4407 70.0503 52.4915C69.2727 52.5424 68.4951 52.517 67.7176 52.4915C67.164 52.4788 67.0586 52.3517 67.0586 51.8305C67.0586 51.1948 67.0586 50.5719 67.0586 49.9363C67.0586 49.4532 67.1509 49.3769 67.6648 49.3642C68.0734 49.3642 68.482 49.3642 68.8773 49.3388C69.7604 49.2752 70.1689 48.8938 70.2612 48.0548C70.3007 47.737 70.3139 47.4191 70.3139 47.114C70.3139 43.8214 70.3139 40.5288 70.3139 37.2362C70.3139 36.4353 70.3798 36.3717 71.2365 36.3717C71.8691 36.3717 72.5149 36.3717 73.1475 36.3717C73.9778 36.3717 74.07 36.4607 74.07 37.2362C74.07 39.0668 74.07 40.9102 74.07 42.7408V43.1985C75.1771 43.1985 76.2446 43.2239 77.3121 43.1985C77.892 43.1731 78.0897 42.9061 78.0897 42.334C78.0897 40.5924 78.0897 38.8507 78.0897 37.0964C78.0897 36.4989 78.2083 36.3717 78.8146 36.3717C79.579 36.3717 80.3434 36.3717 81.1078 36.3717C81.7009 36.3717 81.8327 36.5116 81.8327 37.0964C81.8327 38.9143 81.8327 40.7322 81.8327 42.5501C81.8327 42.9188 81.9776 43.0968 82.3203 43.1095C83.2033 43.1476 84.0863 43.1731 84.9825 43.1858C85.2725 43.1858 85.4306 43.0078 85.4306 42.7154C85.4306 42.5374 85.4438 42.3595 85.4438 42.1688C85.4438 40.4271 85.4174 38.6855 85.4043 36.9311C85.4043 36.3972 85.5361 36.2573 86.0764 36.2573C86.854 36.2573 87.6316 36.2573 88.4092 36.2573C88.9495 36.2573 89.1208 36.4226 89.1208 36.9311C89.1208 39.6643 89.1472 42.3976 89.1208 45.1436C89.1208 46.4403 88.9232 46.6182 87.5789 46.7072C86.4323 46.7835 85.2725 46.8344 84.1259 46.8344C83.2165 46.8344 82.2939 46.7581 81.3846 46.6309C80.9496 46.5801 80.5279 46.364 80.1325 46.1733C79.948 46.0843 79.8426 46.0843 79.6712 46.1733C78.8805 46.5928 78.0106 46.7708 77.1144 46.7962C76.2314 46.8344 75.3352 46.8216 74.4522 46.8344C74.2941 46.8344 74.1491 46.8344 73.9909 46.8344L74.0173 46.8598Z" fill="#020202"/>
<path d="M42.1035 18.4082C42.064 19.7812 42.0376 21.1414 41.9981 22.5144C41.9981 22.6161 41.9981 22.7305 41.9849 22.8322C41.919 23.5569 41.7608 23.7603 41.0096 23.8493C40.0871 23.951 39.1513 24.0272 38.2156 24.0527C36.7132 24.0908 35.1843 24.1925 33.7083 23.8366C33.2865 23.7348 32.9043 23.5314 32.4958 23.3916C32.3771 23.3535 32.219 23.328 32.1267 23.3789C31.336 23.8238 30.453 23.9764 29.5699 23.9891C26.4596 24.0145 23.3361 24.0272 20.2258 23.9891C19.211 23.9891 18.2225 23.7476 17.2604 23.417C15.2176 22.7051 14.0842 21.294 13.7547 19.2472C13.5175 17.7726 13.5834 16.3106 13.8601 14.8486C13.9392 14.4037 14.071 14.2893 14.5455 14.2765C15.244 14.2765 15.9425 14.2765 16.6542 14.2765C17.1418 14.2765 17.2472 14.391 17.2341 14.874C17.2341 15.6495 17.1813 16.4377 17.2341 17.2132C17.2604 17.6836 17.379 18.1667 17.5635 18.5989C17.9721 19.5651 18.8551 20.01 19.8568 20.1753C20.6607 20.3151 21.491 20.3787 22.3213 20.3787C24.5354 20.4041 26.7496 20.3787 28.9637 20.3787C30.2025 20.3787 30.3212 20.2515 30.3212 19.0565C30.3212 17.442 30.3212 15.8402 30.3212 14.2257C30.3212 13.679 30.4661 13.5392 31.046 13.5392C31.8236 13.5392 32.6012 13.5392 33.3788 13.5392C33.9323 13.5392 34.0641 13.679 34.0641 14.213C34.0641 16.0309 34.0641 17.8488 34.0641 19.6668C34.0641 20.1626 34.1036 20.2134 34.6176 20.3151C34.7362 20.3405 34.868 20.3533 34.9867 20.3533C35.896 20.3533 36.7922 20.366 37.7016 20.3533C38.2024 20.3533 38.2815 20.2515 38.3342 19.7685C38.3474 19.6159 38.3342 19.4634 38.3342 19.3235C38.321 17.6073 38.2947 15.8911 38.2815 14.1876C38.2815 13.5646 38.4001 13.4502 39.0327 13.4375C39.7708 13.4375 40.4956 13.4375 41.2337 13.4375C41.8663 13.4375 42.0113 13.5773 42.0244 14.1748C42.0244 15.5732 42.0244 16.9717 42.0244 18.3701H42.1299L42.1035 18.4082Z" fill="#020202"/>
<path d="M85.4141 15.0265C85.4141 12.2933 85.4141 9.56003 85.4141 6.81407C85.4141 6.12758 85.5195 6.02588 86.2048 6.02588C86.9692 6.02588 87.7336 6.02588 88.498 6.02588C89.0647 6.02588 89.2097 6.16572 89.2229 6.72508C89.2229 8.12349 89.2229 9.52189 89.2229 10.9203C89.2229 14.9884 89.2229 19.0692 89.2229 23.1373C89.2229 23.9636 89.1175 24.0653 88.2476 24.0653C87.5623 24.0653 86.877 24.0653 86.1916 24.0653C85.559 24.0653 85.4141 23.9255 85.4141 23.328C85.4141 20.5566 85.4141 17.7979 85.4141 15.0265Z" fill="#020202"/>
<path d="M79.8827 49.7329C80.2385 49.7329 80.5944 49.7329 80.9502 49.7329C81.4511 49.7456 81.6487 49.949 81.6619 50.4321C81.6619 51.0805 81.6619 51.7288 81.6619 52.3645C81.6619 52.7713 81.4774 53.0001 81.0688 53.0128C80.2649 53.0382 79.4478 53.0382 78.6439 53.0128C78.2353 53.0001 78.0508 52.7713 78.0508 52.3517C78.0508 51.7034 78.0508 51.055 78.0508 50.4194C78.0508 49.949 78.2616 49.7456 78.7625 49.7329C79.1315 49.7329 79.5137 49.7329 79.8827 49.7329Z" fill="#020202"/>
<path d="M34.624 28.0823C34.624 27.7518 34.624 27.4213 34.624 27.0907C34.624 26.6839 34.8217 26.4678 35.2434 26.4551C35.9156 26.4297 36.5877 26.4297 37.2467 26.4551C37.7212 26.4551 37.9189 26.6712 37.9189 27.1289C37.9189 27.7772 37.9189 28.4256 37.9189 29.0612C37.9189 29.4935 37.7343 29.7223 37.2862 29.735C36.5877 29.7604 35.8892 29.7604 35.1775 29.735C34.7822 29.7223 34.6108 29.5062 34.5977 29.1121C34.5977 28.7688 34.5977 28.4256 34.5977 28.0696L34.624 28.0823Z" fill="#020202"/>
<path d="M39.564 28.0701C39.564 27.7523 39.564 27.4344 39.564 27.1293C39.564 26.7225 39.7616 26.4937 40.1702 26.481C40.8819 26.4556 41.6068 26.4556 42.3184 26.481C42.6743 26.4937 42.8588 26.6844 42.8588 27.0403C42.872 27.765 42.8588 28.4769 42.8588 29.2015C42.8588 29.532 42.6743 29.7355 42.358 29.7482C41.6068 29.7736 40.8687 29.7863 40.1175 29.7482C39.7221 29.7355 39.564 29.4939 39.5508 29.1125C39.5508 28.7693 39.5508 28.426 39.5508 28.0701H39.564Z" fill="#020202"/>
<path d="M24.75 10.7049C24.75 10.3743 24.75 10.0438 24.75 9.71327C24.7632 9.31918 24.9477 9.11577 25.3431 9.10306C26.0548 9.07763 26.7796 9.09035 27.4913 9.10306C27.8603 9.10306 28.058 9.30646 28.058 9.68785C28.0712 10.387 28.0712 11.099 28.058 11.8109C28.058 12.1668 27.8472 12.3702 27.4781 12.3702C26.7796 12.383 26.0811 12.383 25.3826 12.3702C24.9609 12.3702 24.7632 12.1541 24.7632 11.7473C24.7632 11.4041 24.7632 11.0608 24.7632 10.7176L24.75 10.7049Z" fill="#020202"/>
<path d="M23.1172 10.7295C23.1172 11.0601 23.1172 11.3906 23.1172 11.7211C23.1172 12.1406 22.9327 12.3568 22.511 12.3695C21.7993 12.3822 21.0744 12.3822 20.3627 12.3695C20.0069 12.3695 19.8224 12.1661 19.8224 11.8228C19.8092 11.0982 19.8092 10.3863 19.8224 9.66165C19.8224 9.29298 20.0201 9.115 20.4155 9.115C21.114 9.10229 21.8125 9.10229 22.511 9.115C22.9327 9.115 23.104 9.33112 23.1172 9.75064C23.1172 10.0812 23.1172 10.4117 23.1172 10.7422V10.7295Z" fill="#020202"/>
<path d="M86.4413 32.4178C86.4413 32.7484 86.4413 33.0789 86.4413 33.4094C86.4413 33.7908 86.2436 34.0069 85.8483 34.0197C85.1366 34.0451 84.4117 34.0324 83.7 34.0197C83.3442 34.0197 83.1465 33.8163 83.1465 33.4857C83.1333 32.7484 83.1465 32.011 83.1465 31.2737C83.1465 30.9559 83.3442 30.7652 83.6737 30.7525C84.4117 30.7398 85.1366 30.727 85.8746 30.7525C86.27 30.7525 86.4413 30.9686 86.4413 31.3754C86.4413 31.7186 86.4413 32.0619 86.4413 32.4178Z" fill="#020202"/>
<path d="M91.3998 32.4173C91.3998 32.7606 91.3998 33.1038 91.3998 33.4471C91.3866 33.8157 91.2021 34.0064 90.8199 34.0192C90.1082 34.0319 89.3834 34.0319 88.6717 34.0192C88.3027 34.0192 88.0918 33.803 88.0918 33.4471C88.0918 32.7479 88.0786 32.036 88.0918 31.3368C88.0918 30.9808 88.2895 30.7774 88.6717 30.7647C89.3834 30.7393 90.1082 30.752 90.8199 30.7647C91.2021 30.7647 91.3734 30.9681 91.3998 31.3368C91.413 31.6927 91.3998 32.0614 91.3998 32.4173Z" fill="#020202"/>
<path d="M20.8633 51.3975C20.8633 51.0669 20.8633 50.7364 20.8633 50.4059C20.8765 50.0245 21.0741 49.8211 21.4695 49.8084C22.1417 49.7956 22.8138 49.7956 23.4728 49.8084C23.8945 49.8084 24.0922 50.0245 24.1054 50.4313C24.1054 51.0796 24.1054 51.728 24.1054 52.3636C24.1054 52.7323 23.8814 52.9484 23.4992 52.9611C22.827 52.9738 22.1549 52.9738 21.4959 52.9611C21.0742 52.9611 20.8765 52.745 20.8633 52.3382C20.8633 52.0204 20.8633 51.7026 20.8633 51.3975Z" fill="#020202"/>
</svg>
